<svg width="36" height="40" viewBox="0 0 36 40" fill="none" xmlns="http://www.w3.org/2000/svg">
<g filter="url(#filter0_d_1_85)">
<path fill-rule="evenodd" clip-rule="evenodd" d="M13.9999 0C11.7908 0 9.99996 1.79085 9.99996 3.99998C9.99996 6.20912 11.7908 7.99997 13.9999 7.99997H21.9999C24.209 7.99997 25.9999 6.20912 25.9999 3.99998C25.9999 1.79085 24.209 0 21.9999 0H13.9999ZM6.99997 4.00014H3.99998C1.79085 4.00014 0 5.79099 0 8.00012V36C0 38.2091 1.79085 40 3.99998 40H31.9999C34.209 40 35.9999 38.2091 35.9999 36V8.00012C35.9999 5.79099 34.209 4.00014 31.9999 4.00014H28.9999C28.9999 7.86611 25.8659 11.0001 21.9999 11.0001H13.9999C10.134 11.0001 6.99997 7.86611 6.99997 4.00014ZM9.24996 15.9999C9.24996 15.5857 9.58575 15.2499 9.99996 15.2499H25.9999C26.4141 15.2499 26.7499 15.5857 26.7499 15.9999C26.7499 16.4142 26.4141 16.7499 25.9999 16.7499H9.99996C9.58575 16.7499 9.24996 16.4142 9.24996 15.9999ZM9.99996 23.2499C9.58575 23.2499 9.24996 23.5857 9.24996 23.9999C9.24996 24.4141 9.58575 24.7499 9.99996 24.7499H25.9999C26.4141 24.7499 26.7499 24.4141 26.7499 23.9999C26.7499 23.5857 26.4141 23.2499 25.9999 23.2499H9.99996ZM9.24996 31.9999C9.24996 31.5857 9.58575 31.2499 9.99996 31.2499H17.9999C18.4141 31.2499 18.7499 31.5857 18.7499 31.9999C18.7499 32.4141 18.4141 32.7499 17.9999 32.7499H9.99996C9.58575 32.7499 9.24996 32.4141 9.24996 31.9999Z" fill="white"/>
</g>
<defs>
<filter id="filter0_d_1_85" x="-6.99997" y="-2.99999" width="49.9998" height="53.9999" filterUnits="userSpaceOnUse" color-interpolation-filters="sRGB">
<feFlood flood-opacity="0" result="BackgroundImageFix"/>
<feColorMatrix in="SourceAlpha" type="matrix" values="0 0 0 0 0 0 0 0 0 0 0 0 0 0 0 0 0 0 127 0" result="hardAlpha"/>
<feOffset dy="4"/>
<feGaussianBlur stdDeviation="3.5"/>
<feComposite in2="hardAlpha" operator="out"/>
<feColorMatrix type="matrix" values="0 0 0 0 0.388451 0 0 0 0 0.459239 0 0 0 0 0.484722 0 0 0 0.8 0"/>
<feBlend mode="normal" in2="BackgroundImageFix" result="effect1_dropShadow_1_85"/>
<feBlend mode="normal" in="SourceGraphic" in2="effect1_dropShadow_1_85" result="shape"/>
</filter>
</defs>
</svg>
