<svg width="39" height="39" viewBox="0 0 39 39" fill="none" xmlns="http://www.w3.org/2000/svg">
<g filter="url(#filter0_d_1_75)">
<path fill-rule="evenodd" clip-rule="evenodd" d="M3.85248 3.85248C4.38962 3.31534 5.27643 2.96409 6.6644 3.00283C8.05672 3.04168 9.80742 3.47577 11.8204 4.33847C13.4278 5.02738 15.1559 5.96949 16.9398 7.14097C15.1956 8.51406 13.4523 10.06 11.7562 11.7561C10.0601 13.4522 8.51407 15.1956 7.14096 16.9398C5.96948 15.1559 5.02737 13.4279 4.33846 11.8204C3.47577 9.80747 3.04168 8.05676 3.00283 6.66442C2.96409 5.27645 3.31534 4.38963 3.85248 3.85248ZM13.0021 1.58103C15.0655 2.46533 17.2646 3.7042 19.5 5.24892C21.7354 3.70421 23.9345 2.46535 25.9979 1.58105C28.2179 0.629603 30.3541 0.0569635 32.2519 0.00400707C34.154 -0.049071 35.9605 0.422795 37.2688 1.73118C38.5772 3.03957 39.0491 4.84599 38.996 6.74812C38.9431 8.6459 38.3704 10.7822 37.419 13.0022C36.5347 15.0656 35.2958 17.2647 33.7511 19.5001C35.2957 21.7355 36.5345 23.9345 37.4188 25.9978C38.3702 28.2178 38.9429 30.3541 38.9958 32.2519C39.0489 34.154 38.577 35.9604 37.2687 37.2688C35.9603 38.5772 34.1539 39.0491 32.2517 38.996C30.354 38.943 28.2177 38.3704 25.9977 37.4189C23.9344 36.5347 21.7354 35.2959 19.5 33.7512C17.2646 35.2959 15.0656 36.5347 13.0023 37.419C10.7823 38.3704 8.64603 38.9431 6.74826 38.996C4.84613 39.0491 3.03972 38.5772 1.73133 37.2688C0.422951 35.9604 -0.0489112 34.154 0.00416653 32.2519C0.0571225 30.3541 0.629758 28.2178 1.5812 25.9978C2.46547 23.9345 3.70428 21.7355 5.24893 19.5001C3.70419 17.2647 2.46532 15.0656 1.58102 13.0022C0.629578 10.7821 0.0569418 8.64588 0.00398569 6.7481C-0.0490919 4.84597 0.422771 3.03955 1.73115 1.73116C3.03954 0.422774 4.84595 -0.0490923 6.74808 0.00398573C8.64585 0.0569421 10.7821 0.629581 13.0021 1.58103ZM13.8775 13.8774C15.7316 12.0233 17.6291 10.3734 19.5 8.95345C21.3709 10.3734 23.2684 12.0233 25.1225 13.8774C26.9766 15.7315 28.6266 17.6291 30.0466 19.5001C28.6266 21.371 26.9767 23.2686 25.1227 25.1226C23.2686 26.9767 21.371 28.6267 19.5 30.0467C17.629 28.6267 15.7315 26.9767 13.8773 25.1226C12.0233 23.2685 10.3734 21.371 8.95344 19.5001C10.3734 17.6291 12.0234 15.7315 13.8775 13.8774ZM27.2438 11.7561C28.9399 13.4522 30.4859 15.1956 31.8591 16.9398C33.0305 15.156 33.9726 13.4279 34.6615 11.8205C35.5242 9.80749 35.9583 8.05678 35.9972 6.66444C36.0359 5.27647 35.6847 4.38965 35.1475 3.85251C34.6104 3.31536 33.7236 2.96412 32.3356 3.00285C30.9433 3.0417 29.1926 3.47579 27.1796 4.33849C25.5722 5.0274 23.8442 5.9695 22.0603 7.14097C23.8044 8.51405 25.5477 10.06 27.2438 11.7561ZM27.244 27.2439C28.94 25.5479 30.486 23.8046 31.859 22.0604C33.0304 23.8442 33.9725 25.5722 34.6614 27.1795C35.5241 29.1925 35.9581 30.9432 35.997 32.3356C36.0357 33.7235 35.6845 34.6103 35.1473 35.1475C34.6102 35.6846 33.7234 36.0359 32.3354 35.9972C30.9431 35.9583 29.1924 35.5242 27.1794 34.6615C25.5721 33.9726 23.8441 33.0306 22.0603 31.8592C23.8045 30.486 25.5479 28.9401 27.244 27.2439ZM11.756 27.2439C13.4521 28.94 15.1955 30.486 16.9397 31.8592C15.1559 33.0306 13.428 33.9726 11.8206 34.6615C9.8076 35.5242 8.05691 35.9583 6.66458 35.9972C5.27661 36.0359 4.38981 35.6847 3.85266 35.1475C3.31552 34.6104 2.96428 33.7236 3.00301 32.3356C3.04186 30.9432 3.47595 29.1925 4.33865 27.1796C5.02752 25.5722 5.96957 23.8442 7.14098 22.0604C8.51404 23.8046 10.06 25.5479 11.756 27.2439ZM19.5 23.5001C21.7092 23.5001 23.5001 21.7092 23.5001 19.5C23.5001 17.2909 21.7092 15.5 19.5 15.5C17.2909 15.5 15.5 17.2909 15.5 19.5C15.5 21.7092 17.2909 23.5001 19.5 23.5001Z" fill="white"/>
</g>
<defs>
<filter id="filter0_d_1_75" x="-7.00002" y="-3.00001" width="53" height="53" filterUnits="userSpaceOnUse" color-interpolation-filters="sRGB">
<feFlood flood-opacity="0" result="BackgroundImageFix"/>
<feColorMatrix in="SourceAlpha" type="matrix" values="0 0 0 0 0 0 0 0 0 0 0 0 0 0 0 0 0 0 127 0" result="hardAlpha"/>
<feOffset dy="4"/>
<feGaussianBlur stdDeviation="3.5"/>
<feComposite in2="hardAlpha" operator="out"/>
<feColorMatrix type="matrix" values="0 0 0 0 0.388451 0 0 0 0 0.459239 0 0 0 0 0.484722 0 0 0 0.8 0"/>
<feBlend mode="normal" in2="BackgroundImageFix" result="effect1_dropShadow_1_75"/>
<feBlend mode="normal" in="SourceGraphic" in2="effect1_dropShadow_1_75" result="shape"/>
</filter>
</defs>
</svg>
