<svg width="56" height="56" viewBox="0 0 56 56" fill="none" xmlns="http://www.w3.org/2000/svg">
<g filter="url(#filter0_d_1_80)">
<path fill-rule="evenodd" clip-rule="evenodd" d="M39.1156 3.45633C37.6324 4.34014 37.1242 6.29758 37.9805 7.8284L43.1491 17.0677C44.0055 18.5985 45.9021 19.123 47.3854 18.2392C48.8686 17.3553 49.3769 15.3979 48.5205 13.8671L43.3519 4.62782C42.4955 3.09701 40.5989 2.57251 39.1156 3.45633ZM34.9286 8.41539L19.5596 17.5731C17.5819 18.7516 16.9043 21.3615 18.0461 23.4026L18.3409 23.9296C18.3289 23.9363 18.3169 23.9433 18.3049 23.9504L10.6888 28.4885L9.89763 27.0742C9.48954 26.3447 8.56734 26.0841 7.83785 26.4922C7.10836 26.9003 6.84781 27.8225 7.2559 28.552L10.3571 34.0956C10.7652 34.8251 11.6873 35.0856 12.4168 34.6775C13.1463 34.2694 13.4069 33.3472 12.9988 32.6177L12.1672 31.1312L19.819 26.5718L20.1136 27.0983C21.2554 29.1394 23.7842 29.8387 25.7619 28.6603L28.5271 27.0126L20.4829 42.6965C20.1015 43.4402 20.3952 44.3524 21.1389 44.7339C21.8827 45.1154 22.7949 44.8217 23.1763 44.0779L32.1668 26.549L41.1573 44.0779C41.5388 44.8217 42.451 45.1154 43.1948 44.7339C43.9385 44.3524 44.2322 43.4402 43.8507 42.6965L34.1026 23.6904L41.155 19.4882C40.9148 19.1993 40.6977 18.8846 40.508 18.5454L35.3394 9.30616C35.1774 9.0167 35.0407 8.71884 34.9286 8.41539Z" fill="white"/>
</g>
<defs>
<filter id="filter0_d_1_80" x="0" y="0" width="55.9994" height="56" filterUnits="userSpaceOnUse" color-interpolation-filters="sRGB">
<feFlood flood-opacity="0" result="BackgroundImageFix"/>
<feColorMatrix in="SourceAlpha" type="matrix" values="0 0 0 0 0 0 0 0 0 0 0 0 0 0 0 0 0 0 127 0" result="hardAlpha"/>
<feOffset dy="4"/>
<feGaussianBlur stdDeviation="3.5"/>
<feComposite in2="hardAlpha" operator="out"/>
<feColorMatrix type="matrix" values="0 0 0 0 0.388451 0 0 0 0 0.459239 0 0 0 0 0.484722 0 0 0 0.8 0"/>
<feBlend mode="normal" in2="BackgroundImageFix" result="effect1_dropShadow_1_80"/>
<feBlend mode="normal" in="SourceGraphic" in2="effect1_dropShadow_1_80" result="shape"/>
</filter>
</defs>
</svg>
