<svg width="191" height="99" viewBox="0 0 191 99" fill="none" xmlns="http://www.w3.org/2000/svg">
<g clip-path="url(#clip0_1_108)">
<path d="M190.5 0.550539H0.500446V97.9973H190.5V0.550539Z" stroke="#A9C2CB" stroke-miterlimit="10"/>
<path d="M19.8376 0.550539V97.9973" stroke="#A9C2CB" stroke-miterlimit="10"/>
<path d="M41.8973 0.550539V97.9973" stroke="#A9C2CB" stroke-miterlimit="10"/>
<path d="M63.967 0.550539V97.9973" stroke="#A9C2CB" stroke-miterlimit="10"/>
<path d="M86.0265 0.550539V97.9973" stroke="#A9C2CB" stroke-miterlimit="10"/>
<path d="M108.086 0.550539V97.9973" stroke="#A9C2CB" stroke-miterlimit="10"/>
<path d="M130.156 0.550539V97.9973" stroke="#A9C2CB" stroke-miterlimit="10"/>
<path d="M152.215 0.550539V97.9973" stroke="#A9C2CB" stroke-miterlimit="10"/>
<path d="M174.275 0.550539V97.9973" stroke="#A9C2CB" stroke-miterlimit="10"/>
<path d="M190.5 0.550539H0.500446" stroke="#A9C2CB" stroke-width="1.11" stroke-miterlimit="10"/>
<path d="M190.5 14.4728H0.500446" stroke="#A9C2CB" stroke-width="1.11" stroke-miterlimit="10"/>
<path d="M190.5 28.3953H0.500446" stroke="#A9C2CB" stroke-width="1.11" stroke-miterlimit="10"/>
<path d="M190.5 42.3177H0.500446" stroke="#A9C2CB" stroke-width="1.11" stroke-miterlimit="10"/>
<path d="M190.5 56.24H0.500446" stroke="#A9C2CB" stroke-width="1.11" stroke-miterlimit="10"/>
<path d="M190.5 70.1524H0.500446" stroke="#A9C2CB" stroke-width="1.11" stroke-miterlimit="10"/>
<path d="M190.5 84.0749H0.500446" stroke="#A9C2CB" stroke-width="1.11" stroke-miterlimit="10"/>
<path d="M190.5 97.9973H0.500446" stroke="#A9C2CB" stroke-width="1.11" stroke-miterlimit="10"/>
<path d="M174.275 27.5546H130.076L86.2367 42.1175L63.6166 83.6845L41.9173 56.15L19.8376 83.6845" stroke="url(#paint0_linear_1_108)" stroke-miterlimit="10"/>
<path d="M22.6702 83.6745C22.6702 84.2347 22.5041 84.7824 22.1928 85.2482C21.8816 85.714 21.4392 86.077 20.9216 86.2914C20.404 86.5058 19.8345 86.5619 19.285 86.4526C18.7356 86.3433 18.2309 86.0735 17.8348 85.6774C17.4386 85.2812 17.1689 84.7765 17.0596 84.2271C16.9503 83.6776 17.0064 83.1081 17.2207 82.5905C17.4351 82.073 17.7982 81.6306 18.264 81.3193C18.7298 81.0081 19.2774 80.842 19.8377 80.842C20.5889 80.842 21.3093 81.1404 21.8405 81.6716C22.3717 82.2028 22.6702 82.9233 22.6702 83.6745Z" fill="url(#paint1_linear_1_108)"/>
<path d="M41.9174 58.9925C43.4817 58.9925 44.7499 57.7244 44.7499 56.16C44.7499 54.5957 43.4817 53.3275 41.9174 53.3275C40.353 53.3275 39.0848 54.5957 39.0848 56.16C39.0848 57.7244 40.353 58.9925 41.9174 58.9925Z" fill="url(#paint2_linear_1_108)"/>
<path d="M66.4591 83.6745C66.4611 84.2376 66.2958 84.7885 65.9842 85.2575C65.6727 85.7265 65.2288 86.0924 64.709 86.3088C64.1892 86.5251 63.6168 86.5823 63.0645 86.4729C62.5122 86.3635 62.0048 86.0926 61.6066 85.6945C61.2085 85.2963 60.9376 84.7889 60.8282 84.2366C60.7189 83.6843 60.776 83.1119 60.9924 82.5921C61.2087 82.0723 61.5746 81.6285 62.0436 81.3169C62.5126 81.0053 63.0636 80.84 63.6266 80.842C64.377 80.8446 65.096 81.1439 65.6266 81.6745C66.1572 82.2052 66.4565 82.9241 66.4591 83.6745Z" fill="url(#paint3_linear_1_108)"/>
<path d="M89.0693 42.1175C89.0693 42.6778 88.9031 43.2254 88.5919 43.6912C88.2807 44.157 87.8383 44.52 87.3207 44.7344C86.8031 44.9488 86.2336 45.0049 85.6842 44.8956C85.1347 44.7863 84.63 44.5165 84.2339 44.1204C83.8377 43.7243 83.5679 43.2196 83.4586 42.6701C83.3493 42.1207 83.4054 41.5511 83.6198 41.0336C83.8342 40.516 84.1973 40.0736 84.6631 39.7624C85.1289 39.4511 85.6765 39.285 86.2367 39.285C86.6091 39.2837 86.978 39.356 87.3223 39.4979C87.6665 39.6398 87.9793 39.8484 88.2426 40.1117C88.5059 40.375 88.7145 40.6877 88.8564 41.032C88.9982 41.3763 89.0706 41.7452 89.0693 42.1175Z" fill="url(#paint4_linear_1_108)"/>
<path d="M130.076 30.387C131.64 30.387 132.908 29.1188 132.908 27.5545C132.908 25.9901 131.64 24.722 130.076 24.722C128.511 24.722 127.243 25.9901 127.243 27.5545C127.243 29.1188 128.511 30.387 130.076 30.387Z" fill="url(#paint5_linear_1_108)"/>
<path d="M177.118 27.5545C177.12 28.1188 176.954 28.6709 176.641 29.1405C176.328 29.6101 175.882 29.976 175.36 30.1914C174.839 30.4069 174.265 30.4622 173.712 30.3504C173.159 30.2386 172.651 29.9646 172.255 29.5635C171.858 29.1623 171.589 28.6521 171.483 28.0978C171.377 27.5435 171.439 26.9703 171.66 26.451C171.881 25.9318 172.251 25.4901 172.724 25.1822C173.197 24.8742 173.751 24.7141 174.315 24.722C175.06 24.7325 175.772 25.0352 176.296 25.565C176.82 26.0948 177.115 26.8092 177.118 27.5545Z" fill="url(#paint6_linear_1_108)"/>
</g>
<defs>
<linearGradient id="paint0_linear_1_108" x1="19.4473" y1="55.8197" x2="174.275" y2="55.8197" gradientUnits="userSpaceOnUse">
<stop stop-color="#171E27"/>
<stop offset="1" stop-color="#A9C2CB"/>
</linearGradient>
<linearGradient id="paint1_linear_1_108" x1="17.0051" y1="83.6845" x2="22.6702" y2="83.6845" gradientUnits="userSpaceOnUse">
<stop stop-color="#171E27"/>
<stop offset="1" stop-color="#A9C2CB"/>
</linearGradient>
<linearGradient id="paint2_linear_1_108" x1="39.0848" y1="56.16" x2="44.7499" y2="56.16" gradientUnits="userSpaceOnUse">
<stop stop-color="#171E27"/>
<stop offset="1" stop-color="#A9C2CB"/>
</linearGradient>
<linearGradient id="paint3_linear_1_108" x1="60.7841" y1="83.6845" x2="66.4591" y2="83.6845" gradientUnits="userSpaceOnUse">
<stop stop-color="#A9C2CB"/>
<stop offset="0.0001" stop-color="#171E27"/>
<stop offset="1" stop-color="#A9C2CB"/>
</linearGradient>
<linearGradient id="paint4_linear_1_108" x1="83.4042" y1="42.1175" x2="89.0693" y2="42.1175" gradientUnits="userSpaceOnUse">
<stop stop-color="#171E27"/>
<stop offset="1" stop-color="#A9C2CB"/>
</linearGradient>
<linearGradient id="paint5_linear_1_108" x1="127.233" y1="27.5545" x2="132.908" y2="27.5545" gradientUnits="userSpaceOnUse">
<stop stop-color="#171E27"/>
<stop offset="1" stop-color="#A9C2CB"/>
</linearGradient>
<linearGradient id="paint6_linear_1_108" x1="171.443" y1="27.5545" x2="177.118" y2="27.5545" gradientUnits="userSpaceOnUse">
<stop stop-color="#171E27"/>
<stop offset="1" stop-color="#A9C2CB"/>
</linearGradient>
<clipPath id="clip0_1_108">
<rect width="190.83" height="98.47" fill="white" transform="scale(1.00089)"/>
</clipPath>
</defs>
</svg>
