<svg width="95" height="95" viewBox="0 0 95 95" fill="none" xmlns="http://www.w3.org/2000/svg">
<g clip-path="url(#clip0_1_133)">
<path d="M47.5601 47.4299L2.49367 32.7783C5.48239 23.1953 11.4808 14.8309 19.5989 8.92637C27.717 3.02179 37.5223 -0.10846 47.5601 3.87433e-05V47.4299Z" fill="#171E27" fill-opacity="0.6"/>
<path d="M47.56 47.4299L75.4411 85.7964C65.2642 93.1892 52.5674 96.2367 40.1437 94.2684C27.72 92.3001 16.587 85.4774 9.1935 75.301C4.68666 69.3005 1.71707 62.2882 0.543972 54.876C-0.629129 47.4638 0.0299179 39.8772 2.46358 32.7783L47.56 47.4299Z" fill="#171E27" fill-opacity="0.8"/>
<path d="M47.5601 47.43L75.4412 9.06341C80.48 12.7233 84.7484 17.34 88.0025 22.6499C91.2566 27.9598 93.4327 33.8588 94.4064 40.0099C95.3801 46.161 95.1325 52.4437 93.6775 58.4991C92.2225 64.5544 89.5887 70.2638 85.9266 75.301C83.034 79.3537 79.4911 82.9 75.4412 85.7965L47.5601 47.43Z" fill="#A9C2CB" fill-opacity="0.6"/>
<path d="M47.5601 47.4299V2.53824e-05C57.5938 -0.154645 67.3968 3.01443 75.4412 9.01331L47.5601 47.4299Z" fill="#171E27" fill-opacity="0.2"/>
</g>
<defs>
<clipPath id="clip0_1_133">
<rect width="94.86" height="94.71" fill="white" transform="scale(1.00148)"/>
</clipPath>
</defs>
</svg>
