<svg width="34" height="34" viewBox="0 0 34 34" fill="none" xmlns="http://www.w3.org/2000/svg">
<g filter="url(#filter0_d_1_138)">
<path fill-rule="evenodd" clip-rule="evenodd" d="M19.0798 3.04719C23.0276 3.84316 26.1373 6.95289 26.9333 10.9006C27.1527 11.9887 26.2319 12.8976 25.1219 12.8976H19.0927C17.9827 12.8976 17.0829 11.9978 17.0829 10.8878V4.85853C17.0829 3.74858 17.9918 2.82781 19.0798 3.04719ZM7.03414 13.9025C7.03414 9.07624 10.8145 5.13298 15.5756 4.87227V10.8878C15.5756 12.8303 17.1503 14.4049 19.0927 14.4049H25.1082C24.8475 19.166 20.9042 22.9464 16.078 22.9464C11.0832 22.9464 7.03414 18.8973 7.03414 13.9025Z" fill="white"/>
</g>
<defs>
<filter id="filter0_d_1_138" x="0" y="0" width="34" height="34" filterUnits="userSpaceOnUse" color-interpolation-filters="sRGB">
<feFlood flood-opacity="0" result="BackgroundImageFix"/>
<feColorMatrix in="SourceAlpha" type="matrix" values="0 0 0 0 0 0 0 0 0 0 0 0 0 0 0 0 0 0 127 0" result="hardAlpha"/>
<feOffset dy="4"/>
<feGaussianBlur stdDeviation="3.5"/>
<feComposite in2="hardAlpha" operator="out"/>
<feColorMatrix type="matrix" values="0 0 0 0 0.388451 0 0 0 0 0.459239 0 0 0 0 0.484722 0 0 0 0.8 0"/>
<feBlend mode="normal" in2="BackgroundImageFix" result="effect1_dropShadow_1_138"/>
<feBlend mode="normal" in="SourceGraphic" in2="effect1_dropShadow_1_138" result="shape"/>
</filter>
</defs>
</svg>
