<svg width="40" height="40" viewBox="0 0 40 40" fill="none" xmlns="http://www.w3.org/2000/svg">
<g filter="url(#filter0_d_1_100)">
<path fill-rule="evenodd" clip-rule="evenodd" d="M24.7152 11.2031C23.7181 10.6701 22.6407 10.3129 21.5303 10.1432V5.25118e-06C24.3029 0.208532 27.0076 0.992632 29.4694 2.3085C32.3742 3.86112 34.8512 6.10615 36.681 8.84472C38.5109 11.5833 39.6371 14.7309 39.96 18.0087C39.9751 18.1623 39.9884 18.316 40 18.4697H29.8568C29.6373 17.0331 29.1051 15.6598 28.2953 14.4479C27.3869 13.0884 26.1572 11.9739 24.7152 11.2031ZM8.90113 3.31896C11.777 1.39739 15.0939 0.258113 18.5261 0V10.1432C17.0933 10.3621 15.7195 10.8927 14.5043 11.7047C12.8692 12.7972 11.5948 14.3501 10.8423 16.1669C10.0898 17.9837 9.89286 19.9828 10.2765 21.9115C10.5616 23.3449 11.1579 24.6916 12.0162 25.8595L4.8439 33.0319C2.59949 30.4224 1.05961 27.2714 0.384845 23.8791C-0.387947 19.994 0.00867789 15.967 1.52456 12.3073C3.04045 8.64766 5.60751 5.51968 8.90113 3.31896ZM6.96822 35.1561C9.07624 36.9692 11.5431 38.3272 14.2144 39.1376C17.3662 40.0936 20.7052 40.2577 23.9355 39.6151C27.1358 38.9785 30.1317 37.5698 32.6628 35.5119L23.636 29.2369C23.0971 29.4467 22.5391 29.6099 21.968 29.7235C20.3643 30.0424 18.7067 29.961 17.142 29.4864C16.0601 29.1582 15.0457 28.649 14.1405 27.9838L6.96822 35.1561ZM29.2141 23.7767C29.5214 23.0349 29.7364 22.2616 29.8568 21.4739H40C39.8412 23.5856 39.3479 25.6662 38.5319 27.6362C37.6528 29.7584 36.4182 31.7065 34.888 33.4L26.4683 27.547C27.6689 26.5263 28.6104 25.2341 29.2141 23.7767Z" fill="white"/>
</g>
<defs>
<filter id="filter0_d_1_100" x="-7.00986" y="-3.00423" width="54.0197" height="54.0197" filterUnits="userSpaceOnUse" color-interpolation-filters="sRGB">
<feFlood flood-opacity="0" result="BackgroundImageFix"/>
<feColorMatrix in="SourceAlpha" type="matrix" values="0 0 0 0 0 0 0 0 0 0 0 0 0 0 0 0 0 0 127 0" result="hardAlpha"/>
<feOffset dy="4"/>
<feGaussianBlur stdDeviation="3.5"/>
<feComposite in2="hardAlpha" operator="out"/>
<feColorMatrix type="matrix" values="0 0 0 0 0.388451 0 0 0 0 0.459239 0 0 0 0 0.484722 0 0 0 0.8 0"/>
<feBlend mode="normal" in2="BackgroundImageFix" result="effect1_dropShadow_1_100"/>
<feBlend mode="normal" in="SourceGraphic" in2="effect1_dropShadow_1_100" result="shape"/>
</filter>
</defs>
</svg>
