<svg width="34" height="34" viewBox="0 0 34 34" fill="none" xmlns="http://www.w3.org/2000/svg">
<g filter="url(#filter0_d_1_31)">
<path fill-rule="evenodd" clip-rule="evenodd" d="M7 13.0058C7 7.48625 11.4884 3 17 3C22.5116 3 27 7.48625 27 13.0058C27 18.5137 22.5116 23 17 23C11.4884 23 7 18.5137 7 13.0058ZM20.668 14.0178C20.7741 13.9117 20.9093 13.7477 20.9382 13.7091C21.0927 13.5065 21.1699 13.2557 21.1699 13.0058C21.1699 12.725 21.083 12.4645 20.9189 12.2523C20.9055 12.2388 20.8791 12.2102 20.8448 12.1728C20.7806 12.103 20.6885 12.0026 20.6004 11.9146C19.8089 11.0656 17.7432 9.67631 16.6622 9.25181C16.4981 9.18524 16.083 9.03956 15.861 9.02991C15.6486 9.02991 15.4459 9.07815 15.2529 9.17463C15.0116 9.3097 14.8185 9.52195 14.7124 9.77279C14.6448 9.94645 14.5386 10.4674 14.5386 10.4771C14.4324 11.0463 14.3745 11.9725 14.3745 12.9952C14.3745 13.9706 14.4324 14.8572 14.5193 15.4361C14.5217 15.4385 14.53 15.4799 14.5429 15.5442C14.5821 15.7397 14.6638 16.1471 14.751 16.314C14.9633 16.7192 15.3784 16.9701 15.8224 16.9701H15.861C16.1506 16.9604 16.7587 16.7096 16.7587 16.7C17.7819 16.2754 19.7992 14.9537 20.61 14.0757L20.668 14.0178Z" fill="white"/>
</g>
<defs>
<filter id="filter0_d_1_31" x="0" y="0" width="34" height="34" filterUnits="userSpaceOnUse" color-interpolation-filters="sRGB">
<feFlood flood-opacity="0" result="BackgroundImageFix"/>
<feColorMatrix in="SourceAlpha" type="matrix" values="0 0 0 0 0 0 0 0 0 0 0 0 0 0 0 0 0 0 127 0" result="hardAlpha"/>
<feOffset dy="4"/>
<feGaussianBlur stdDeviation="3.5"/>
<feComposite in2="hardAlpha" operator="out"/>
<feColorMatrix type="matrix" values="0 0 0 0 0.388451 0 0 0 0 0.459239 0 0 0 0 0.484722 0 0 0 0.8 0"/>
<feBlend mode="normal" in2="BackgroundImageFix" result="effect1_dropShadow_1_31"/>
<feBlend mode="normal" in="SourceGraphic" in2="effect1_dropShadow_1_31" result="shape"/>
</filter>
</defs>
</svg>
