<svg width="31" height="34" viewBox="0 0 31 34" fill="none" xmlns="http://www.w3.org/2000/svg">
<g filter="url(#filter0_d_1_66)">
<path fill-rule="evenodd" clip-rule="evenodd" d="M12.7041 4.88575C13.592 4.63462 14.5297 4.5 15.5 4.5C16.4703 4.5 17.408 4.63462 18.2959 4.88575C18.6945 4.99849 19.109 4.76676 19.2217 4.36818C19.3344 3.96961 19.1027 3.55511 18.7041 3.44238C17.6847 3.15405 16.6097 3 15.5 3C14.3903 3 13.3153 3.15405 12.2959 3.44238C11.8973 3.55511 11.6656 3.96961 11.7783 4.36818C11.891 4.76676 12.3055 4.99849 12.7041 4.88575ZM24 14.25C24 18.9444 20.1944 22.75 15.5 22.75C10.8056 22.75 7 18.9444 7 14.25C7 9.55558 10.8056 5.75 15.5 5.75C20.1944 5.75 24 9.55558 24 14.25ZM16.25 9.75C16.25 9.33579 15.9142 9 15.5 9C15.0858 9 14.75 9.33579 14.75 9.75V13.4507C14.3016 13.71 14 14.1948 14 14.75C14 15.5784 14.6716 16.25 15.5 16.25C16.3284 16.25 17 15.5784 17 14.75C17 14.1948 16.6984 13.71 16.25 13.4507V9.75Z" fill="white"/>
</g>
<defs>
<filter id="filter0_d_1_66" x="0" y="0" width="31" height="33.75" filterUnits="userSpaceOnUse" color-interpolation-filters="sRGB">
<feFlood flood-opacity="0" result="BackgroundImageFix"/>
<feColorMatrix in="SourceAlpha" type="matrix" values="0 0 0 0 0 0 0 0 0 0 0 0 0 0 0 0 0 0 127 0" result="hardAlpha"/>
<feOffset dy="4"/>
<feGaussianBlur stdDeviation="3.5"/>
<feComposite in2="hardAlpha" operator="out"/>
<feColorMatrix type="matrix" values="0 0 0 0 0.388451 0 0 0 0 0.459239 0 0 0 0 0.484722 0 0 0 0.8 0"/>
<feBlend mode="normal" in2="BackgroundImageFix" result="effect1_dropShadow_1_66"/>
<feBlend mode="normal" in="SourceGraphic" in2="effect1_dropShadow_1_66" result="shape"/>
</filter>
</defs>
</svg>
